<svg width="40" height="40" viewBox="0 0 40 40" fill="none" xmlns="http://www.w3.org/2000/svg">
<path d="M20 40C31.0457 40 40 31.0457 40 20C40 8.95431 31.0457 0 20 0C8.95431 0 0 8.95431 0 20C0 31.0457 8.95431 40 20 40Z" fill="#D74F49"/>
<path d="M27.0558 20.5197C27.7487 19.3228 28.8668 19.3228 29.5597 20.5197L33.8747 28.0945C34.5676 29.2913 34.0006 30.2677 32.6148 30.2677H23.9219C22.5518 30.2677 21.9849 29.2913 22.6621 28.0945L27.0558 20.5197ZM18.7093 5.93701C19.4022 4.74016 20.5046 4.74016 21.1975 5.93701L22.1581 7.6693L24.4258 11.6535C24.977 12.7874 24.977 14.126 24.4258 15.2598L16.8195 28.4409C16.1266 29.5118 14.977 30.189 13.7014 30.2677H7.38648C6.00065 30.2677 5.43372 29.3071 6.12663 28.0945L18.7093 5.93701Z" fill="white"/>
</svg>
