<svg width="40" height="40" viewBox="0 0 40 40" fill="none" xmlns="http://www.w3.org/2000/svg">
<g clip-path="url(#clip0)">
<path d="M16.21 34.2099C21.9662 34.2099 26.6311 29.545 26.6311 23.7888C26.6311 18.0326 21.9662 13.3678 16.21 13.3678C10.4538 13.3678 5.78899 18.0326 5.78899 23.7888C5.78899 29.545 10.4538 34.2099 16.21 34.2099ZM16.21 37.9994C8.36204 37.9994 1.99951 31.6368 1.99951 23.7888C1.99951 15.9408 8.36204 9.5783 16.21 9.5783C24.058 9.5783 30.4206 15.9408 30.4206 23.7888C30.4206 31.6368 24.058 37.9994 16.21 37.9994Z" fill="#F4CC6F"/>
<path d="M23.7883 26.6311C29.5445 26.6311 34.2093 21.9662 34.2093 16.21C34.2093 10.4538 29.5445 5.78899 23.7883 5.78899C18.0321 5.78899 13.3672 10.4538 13.3672 16.21C13.3672 21.9662 18.0321 26.6311 23.7883 26.6311ZM23.7883 30.4206C15.9403 30.4206 9.57776 24.058 9.57776 16.21C9.57776 8.36204 15.9403 1.99951 23.7883 1.99951C31.6363 1.99951 37.9988 8.36204 37.9988 16.21C37.9988 24.058 31.6363 30.4206 23.7883 30.4206Z" fill="#69CC86"/>
<path d="M24.2582 30.4204C25.2434 29.2267 25.9483 27.8284 26.3234 26.324C27.8241 25.9488 29.2224 25.244 30.4199 24.2587C30.3668 25.9981 29.9917 27.7109 29.3133 29.3177C27.7104 29.9922 25.9976 30.3674 24.2582 30.4204ZM13.6742 13.6747C12.1735 14.0499 10.7752 14.7547 9.57776 15.74C9.63081 14.0006 10.006 12.2878 10.6843 10.6848C12.2872 10.0103 14.0039 9.63514 15.7394 9.5783C14.7542 10.772 14.0493 12.1703 13.6742 13.6747Z" fill="#6FA04A"/>
</g>
<defs>
<clipPath id="clip0">
<rect width="36" height="36" fill="white" transform="translate(1.99951 1.99951)"/>
</clipPath>
</defs>
</svg>
