<svg width="221" height="46" viewBox="0 0 221 46" fill="none" xmlns="http://www.w3.org/2000/svg">
<rect width="118.966" height="46" fill="#FDF1A6"/>
<rect width="101.517" height="46" transform="matrix(-1 0 0 1 220.482 0)" fill="#111111"/>
<path d="M20.6568 30H23.7321V23.9915H29.6483V21.456H23.7321V17.9901H30.2875V15.4545H20.6568V30ZM32.2992 30H35.3248V19.0909H32.2992V30ZM33.8191 17.6847C34.7211 17.6847 35.4597 16.9957 35.4597 16.1506C35.4597 15.3125 34.7211 14.6236 33.8191 14.6236C32.9242 14.6236 32.1855 15.3125 32.1855 16.1506C32.1855 16.9957 32.9242 17.6847 33.8191 17.6847ZM42.6632 34.3182C45.7811 34.3182 47.997 32.8977 47.997 30.1065V19.0909H44.9927V20.9233H44.8791C44.4743 20.0355 43.5865 18.9489 41.7612 18.9489C39.3677 18.9489 37.3436 20.8097 37.3436 24.5241C37.3436 28.1534 39.3109 29.8438 41.7683 29.8438C43.5083 29.8438 44.4814 28.9702 44.8791 28.0682H45.0069V30.0639C45.0069 31.5625 44.0481 32.1449 42.7342 32.1449C41.399 32.1449 40.7243 31.5625 40.4757 30.902L37.6774 31.2784C38.0396 32.9972 39.7228 34.3182 42.6632 34.3182ZM42.7271 27.571C41.2427 27.571 40.4331 26.392 40.4331 24.5099C40.4331 22.6562 41.2285 21.3565 42.7271 21.3565C44.1973 21.3565 45.0211 22.5994 45.0211 24.5099C45.0211 26.4347 44.1831 27.571 42.7271 27.571ZM50.4047 30H53.4302V23.4517C53.4302 22.2443 54.1973 21.4418 55.2058 21.4418C56.2001 21.4418 56.8677 22.1236 56.8677 23.196V30H59.801V23.3381C59.801 22.2088 60.4473 21.4418 61.5481 21.4418C62.514 21.4418 63.2385 22.0455 63.2385 23.2599V30H66.2569V22.6634C66.2569 20.2983 64.8507 18.9489 62.8194 18.9489C61.2214 18.9489 59.9785 19.7656 59.5311 21.0156H59.4174C59.0694 19.7514 57.9544 18.9489 56.4558 18.9489C54.9856 18.9489 53.8706 19.7301 53.416 21.0156H53.2882V19.0909H50.4047V30ZM73.6184 30.2131C76.3173 30.2131 78.1355 28.8991 78.5616 26.875L75.7633 26.6903C75.4579 27.5213 74.6767 27.9545 73.6681 27.9545C72.1554 27.9545 71.1966 26.9531 71.1966 25.3267V25.3196H78.6255V24.4886C78.6255 20.7812 76.3812 18.9489 73.4977 18.9489C70.2875 18.9489 68.2065 21.2287 68.2065 24.5952C68.2065 28.054 70.2591 30.2131 73.6184 30.2131ZM71.1966 23.4446C71.2605 22.2017 72.2051 21.2074 73.5474 21.2074C74.8613 21.2074 75.7704 22.1449 75.7775 23.4446H71.1966ZM83.6255 23.6932C83.6326 22.2869 84.4707 21.4631 85.6923 21.4631C86.9068 21.4631 87.6383 22.2585 87.6312 23.5938V30H90.6568V23.054C90.6568 20.5114 89.1653 18.9489 86.8926 18.9489C85.2733 18.9489 84.1014 19.7443 83.6113 21.0156H83.4835V19.0909H80.6V30H83.6255V23.6932ZM98.8439 19.0909H96.7914V16.4773H93.7658V19.0909H92.2743V21.3636H93.7658V27.0455C93.7516 29.1832 95.2076 30.2415 97.4022 30.1491C98.1834 30.1207 98.7374 29.9645 99.0428 29.8651L98.5669 27.6136C98.4178 27.642 98.0982 27.7131 97.8141 27.7131C97.2104 27.7131 96.7914 27.4858 96.7914 26.6477V21.3636H98.8439V19.0909Z" fill="#111111"/>
<path d="M141.942 30H150.983V27.7912H144.577V15.4545H141.942V30ZM158.786 30.2131C161.329 30.2131 163.076 28.9702 163.53 27.0739L161.13 26.804C160.782 27.7273 159.93 28.2102 158.822 28.2102C157.16 28.2102 156.059 27.1165 156.038 25.2486H163.637V24.4602C163.637 20.6321 161.336 18.9489 158.651 18.9489C155.526 18.9489 153.488 21.2429 153.488 24.6094C153.488 28.0327 155.498 30.2131 158.786 30.2131ZM156.045 23.5156C156.123 22.1236 157.153 20.9517 158.687 20.9517C160.164 20.9517 161.158 22.0312 161.172 23.5156H156.045ZM169.751 30.2202C171.463 30.2202 172.486 29.4176 172.954 28.5014H173.04V30H175.511V22.6989C175.511 19.8153 173.16 18.9489 171.079 18.9489C168.785 18.9489 167.024 19.9716 166.456 21.9602L168.856 22.3011C169.112 21.5554 169.836 20.9162 171.094 20.9162C172.287 20.9162 172.94 21.527 172.94 22.5994V22.642C172.94 23.3807 172.166 23.4162 170.241 23.6222C168.125 23.8494 166.101 24.4815 166.101 26.9389C166.101 29.0838 167.67 30.2202 169.751 30.2202ZM170.419 28.331C169.346 28.331 168.579 27.8409 168.579 26.8963C168.579 25.9091 169.439 25.4972 170.589 25.3338C171.264 25.2415 172.613 25.071 172.947 24.8011V26.0866C172.947 27.3011 171.967 28.331 170.419 28.331ZM178.896 30H181.467V23.5866C181.467 22.2017 182.511 21.2216 183.925 21.2216C184.358 21.2216 184.898 21.2997 185.118 21.3707V19.0057C184.884 18.9631 184.479 18.9347 184.195 18.9347C182.945 18.9347 181.901 19.6449 181.503 20.9091H181.389V19.0909H178.896V30ZM190.197 23.608C190.197 22.0312 191.149 21.1222 192.505 21.1222C193.833 21.1222 194.629 21.9957 194.629 23.4517V30H197.2V23.054C197.207 20.4403 195.716 18.9489 193.464 18.9489C191.831 18.9489 190.708 19.7301 190.211 20.9446H190.083V19.0909H187.626V30H190.197V23.608Z" fill="#FDF1A6"/>
</svg>
