<svg id="Layer_1" data-name="Layer 1" xmlns="http://www.w3.org/2000/svg" viewBox="0 0 600.63 890.97"><defs><style>.cls-1{fill:#8246fa;}</style></defs><path class="cls-1" d="M440.13,963.79A11.93,11.93,0,0,1,428,951.69V348.15c-1.51-25.72,1.52-119.5,74.12-195.13,22.69-24.2,86.22-78.66,183-80.17C779,71.34,844,121.25,866.69,142.43c24.2,22.69,80.17,84.71,83.19,183,3,99.83-52.94,164.87-75.63,189.08-66.56,68.07-148.24,75.63-180,77.14-6,0-12.1-6-12.1-12.1,0-7.56,4.53-12.1,12.1-12.1,28.74,0,102.86-9.08,163.36-69.58,16.64-16.64,71.1-78.66,69.58-170.93-1.51-90.76-57.48-149.75-75.63-164.88-16.64-15.12-74.12-62-160.34-62h-4.54c-87.73,1.51-145.21,51.42-166.39,72.6-66.55,66.56-68.06,151.26-68.06,175.47V951.69C452.23,959.25,447.69,963.79,440.13,963.79Z" transform="translate(-349.37 -72.81)"/><path class="cls-1" d="M686.69,422.27a87.74,87.74,0,1,1,87.73-87.74A87.79,87.79,0,0,1,686.69,422.27Zm0-152.78c-34.79,0-63.53,28.74-63.53,63.53s28.74,63.53,63.53,63.53,63.53-28.74,63.53-63.53S721.48,269.49,686.69,269.49Z" transform="translate(-349.37 -72.81)"/><path class="cls-1" d="M521.81,752a11.93,11.93,0,0,1-12.1-12.1V348.15a11.92,11.92,0,0,1,12.1-12.1c6.05,0,12.1,6.05,12.1,12.1V739.92C533.91,746,527.86,752,521.81,752Z" transform="translate(-349.37 -72.81)"/><path class="cls-1" d="M609.54,874.54a11.93,11.93,0,0,1-12.1-12.1V653.7a11.92,11.92,0,0,1,12.1-12.1c6.05,0,12.1,6,12.1,12.1V862.44C623.15,868.49,617.1,874.54,609.54,874.54Z" transform="translate(-349.37 -72.81)"/><path class="cls-1" d="M361.47,776.22a11.93,11.93,0,0,1-12.1-12.1V497.9a11.92,11.92,0,0,1,12.1-12.1c6,0,12.1,6.05,12.1,12.1V764.12C373.57,771.68,369,776.22,361.47,776.22Z" transform="translate(-349.37 -72.81)"/><path class="cls-1" d="M686.69,510c-98.32,0-177-80.17-177-177s78.66-177,177-177,177,80.17,177,177S783.5,510,686.69,510Zm0-329.76A152.78,152.78,0,1,0,839.47,333C839.47,248.31,769.89,180.24,686.69,180.24Z" transform="translate(-349.37 -72.81)"/></svg>